<svg width="34" height="34" viewBox="0 0 34 34" fill="none" xmlns="http://www.w3.org/2000/svg">
<path d="M28.6875 0H5.3125C2.37849 0 0 2.37849 0 5.3125V28.6875C0 31.6215 2.37849 34 5.3125 34H28.6875C31.6215 34 34 31.6215 34 28.6875V5.3125C34 2.37849 31.6215 0 28.6875 0Z" fill="#0088CC"/>
<path d="M8.60616 16.6901C13.1696 14.7019 16.2125 13.3911 17.7351 12.7578C22.0823 10.9497 22.9856 10.6356 23.5744 10.6251C23.7039 10.6229 23.9934 10.655 24.181 10.8072C24.3393 10.9357 24.3829 11.1093 24.4038 11.2311C24.4246 11.353 24.4506 11.6305 24.4299 11.8474C24.1944 14.3226 23.175 20.3293 22.6564 23.1016C22.437 24.2747 22.0049 24.668 21.5867 24.7065C20.6776 24.7902 19.9873 24.1058 19.1069 23.5286C17.7291 22.6255 16.9508 22.0633 15.6135 21.182C14.068 20.1635 15.0698 19.6038 15.9506 18.6889C16.1811 18.4495 20.1864 14.8064 20.2639 14.4759C20.2736 14.4346 20.2826 14.2805 20.1911 14.1992C20.0996 14.1178 19.9645 14.1456 19.867 14.1678C19.7288 14.1991 17.5279 15.6539 13.2641 18.532C12.6394 18.961 12.0735 19.17 11.5665 19.1591C11.0076 19.147 9.93248 18.843 9.13323 18.5832C8.15291 18.2646 7.37377 18.0961 7.44162 17.5549C7.47696 17.273 7.86514 16.9847 8.60616 16.6901Z" fill="white"/>
</svg>
