<svg width="34" height="34" viewBox="0 0 34 34" fill="none" xmlns="http://www.w3.org/2000/svg">
<path d="M0.485714 5.64643C0.485714 2.79625 2.79624 0.485718 5.64643 0.485718H28.3536C31.2038 0.485718 33.5143 2.79625 33.5143 5.64643V28.3536C33.5143 31.2038 31.2038 33.5143 28.3536 33.5143H5.64643C2.79624 33.5143 0.485714 31.2038 0.485714 28.3536V5.64643Z" fill="white"/>
<path d="M0 16.32C0 8.62467 0 4.78267 2.38 2.38C4.794 0 8.636 0 16.32 0H17.68C25.3753 0 29.2173 0 31.62 2.38C34 4.794 34 8.636 34 16.32V17.68C34 25.3753 34 29.2173 31.62 31.62C29.206 34 25.364 34 17.68 34H16.32C8.62467 34 4.78267 34 2.38 31.62C0 29.206 0 25.364 0 17.68V16.32Z" fill="#0077FF"/>
<path d="M18.088 24.4913C10.336 24.4913 5.91601 19.1873 5.73467 10.3473H9.63334C9.75801 16.83 12.614 19.5726 14.8807 20.1393V10.3473H18.5413V15.9346C20.774 15.6966 23.1313 13.1466 23.9247 10.336H27.574C27.2764 11.7909 26.682 13.1688 25.8279 14.3837C24.9738 15.5986 23.8784 16.6242 22.61 17.3966C24.0255 18.1011 25.2755 19.0977 26.2777 20.3206C27.2798 21.5435 28.0113 22.965 28.424 24.4913H24.4007C23.5393 21.8053 21.386 19.72 18.5413 19.4366V24.4913H18.0993H18.088Z" fill="white"/>
</svg>
